<?xml version="1.0"?>
<svg xmlns="http://www.w3.org/2000/svg" viewBox="0 0 48 48" width="512" height="512"><g id="_18._google_ads_logo" data-name="18. google ads logo"><path d="M46.79,32.49c-11.62-20.12-17-30.28-18.1-29.18A9,9,0,0,0,16.11,6.69c-1.52,2.6,5.46-9.48-14.82,25.66A8.94,8.94,0,0,0,0,37c0,9.19,12.22,12.42,16.79,4.5C17.5,40.26,14.23,45.94,24,29L31.2,41.5a9,9,0,1,0,15.59-9ZM9,44A7,7,0,0,1,2.93,33.5h0A1.31,1.31,0,0,0,3,33.37c4.21-6.95,15.15-2.22,12.64,5.74A7,7,0,0,1,9,44Zm8.89-8.4a9,9,0,0,0-12.12-7l9.34-16.18c.37,2.34,1.07,3.06,7.73,14.61ZM39,44a7,7,0,0,1-6.06-3.5C16.38,11.82,17,13.52,17,11A7,7,0,0,1,27.39,4.88C29.51,5.82,29.19,6,45,33.37A7,7,0,0,1,39,44Z"/></g></svg>
