<svg height="490pt" viewBox="0 -10 490.89116 490" width="490pt" xmlns="http://www.w3.org/2000/svg"><path d="m245.445312 469.777344c-14.617187-.015625-28.984374-3.777344-41.734374-10.933594l-49.199219-27.730469c-8.128907-4.480469-17.792969-5.257812-26.53125-2.132812l-17.335938 6.265625c-21.300781 7.671875-44.882812-2.628906-53.730469-23.46875-1.46875-3.597656-5.734374-6-10.402343-6h-14.398438c-14.09375.050781-26.558593-9.125-30.699219-22.59375-4.140624-13.46875 1.015626-28.0625 12.699219-35.9375l35.199219-23.867188c19.71875-13.304687 34.414062-32.832031 41.734375-55.464844l-35.46875-14.136718c-19.070313-7.839844-28.175781-29.660156-20.332031-48.730469 7.84375-19.074219 29.660156-28.175781 48.734375-20.335937l22.796875 9.066406v-54.664063c0-76.585937 62.085937-138.667969 138.667968-138.667969 76.582032 0 138.667969 62.082032 138.667969 138.667969v54.664063l22.933594-9.199219c19.109375-7.804687 40.925781 1.359375 48.730469 20.46875 7.808594 19.109375-1.355469 40.925781-20.464844 48.730469l-35.332031 14.136718c7.316406 22.632813 22.011719 42.160157 41.730469 55.464844l35.066406 23.867188c11.6875 7.875 16.84375 22.46875 12.699218 35.9375-4.140624 13.46875-16.605468 22.644531-30.699218 22.59375h-14.265625c-4.667969 0-8.933594 2.402344-10.398438 6-8.851562 20.910156-32.527343 31.226562-53.867187 23.46875l-17.332032-6.265625c-8.746093-3.105469-18.398437-2.332031-26.535156 2.132812l-49.199218 27.730469c-12.75 7.15625-27.117188 10.917969-41.734376 10.933594zm-106.667968-64c9.152344-.011719 18.152344 2.332031 26.136718 6.800781l49.199219 27.734375c19.511719 10.722656 43.152344 10.722656 62.664063 0l49.203125-27.734375c13.539062-7.519531 29.65625-8.878906 44.265625-3.734375l17.332031 6.269531c10.660156 3.597657 22.3125-1.476562 26.933594-11.734375 4.933593-11.464844 16.667969-18.933594 30-18.933594h14.265625c4.671875-.011718 8.792968-3.0625 10.167968-7.523437 1.375-4.464844-.3125-9.304687-4.167968-11.941406l-35.199219-23.867188c-26.757813-18.066406-45.675781-45.605469-52.933594-77.066406l-2-8.933594 52.667969-21.066406c5.429688-2.070313 9.308594-6.921875 10.136719-12.675781.824219-5.75-1.53125-11.496094-6.15625-15.011719s-10.792969-4.25-16.113281-1.914063l-52.402344 20.933594v-86.265625c0-64.800781-52.53125-117.335937-117.332032-117.335937-64.800781 0-117.332031 52.535156-117.332031 117.335937v86.265625l-52.269531-20.933594c-4.945312-2.085937-10.609375-1.574218-15.105469 1.367188-4.492187 2.945312-7.226562 7.929688-7.292969 13.300781-.003906 6.550781 4.023438 12.429688 10.132813 14.800781l52.667969 21.199219-2 8.933594c-7.257813 31.460937-26.175782 59-52.933594 77.066406l-35.199219 23.867188c-3.855469 2.636719-5.542969 7.476562-4.167969 11.941406 1.378907 4.460937 5.496094 7.511719 10.167969 7.523437h14.265625c13.332032 0 25.199219 7.46875 30 18.933594 4.621094 10.257813 16.273438 15.332032 26.933594 11.734375l17.332031-6.269531c5.824219-2.058594 11.957031-3.097656 18.132813-3.066406zm0 0"/></svg>