<svg fill="none" height="24" viewBox="0 0 24 24" width="24" xmlns="http://www.w3.org/2000/svg"><path clip-rule="evenodd" d="m10.5 2c0-.27614.2239-.5.5-.5h3c.2761 0 .5.22386.5.5 0 3.03757 2.4624 5.5 5.5 5.5.2761 0 .5.22386.5.5v3c0 .2761-.2239.5-.5.5-2.0494 0-3.9479-.6494-5.5-1.75317v6.25317c0 3.5899-2.9101 6.5-6.5 6.5-3.58985 0-6.5-2.9101-6.5-6.5s2.91015-6.5 6.5-6.5c.27614 0 .5.22386.5.5v3c0 .2761-.22386.5-.5.5-1.38071 0-2.5 1.1193-2.5 2.5s1.11929 2.5 2.5 2.5 2.5-1.1193 2.5-2.5zm1 .5v13.5c0 1.933-1.567 3.5-3.5 3.5s-3.5-1.567-3.5-3.5c0-1.7632 1.30385-3.2219 3-3.4646v-2.013c-2.80325.2526-5 2.6086-5 5.4776 0 3.0376 2.46243 5.5 5.5 5.5 3.0376 0 5.5-2.4624 5.5-5.5v-7.29168c0-.19721.1159-.37599.296-.45647.18-.08048.3905-.04762.5375.0839 1.3881 1.24246 3.186 2.03495 5.1665 2.14975v-2.00444c-3.1912-.24276-5.7383-2.78986-5.9811-5.98106z" fill="#000" fill-rule="evenodd"/></svg>